<svg xmlns="http://www.w3.org/2000/svg" width="500" height="500" viewBox="0 0 500 500" version="1.1"><path d="M 304 7.629 C 298.626 8.666, 294.149 10.389, 285.500 14.750 C 269.361 22.889, 257.840 32.162, 248.916 44.196 C 240.613 55.392, 237.446 61.400, 232.854 74.664 C 228.909 86.059, 228.725 87.152, 227.909 104 C 227.443 113.625, 227.082 139.010, 227.106 160.411 C 227.156 204.277, 227.638 201.440, 219.109 207.472 C 215.376 210.113, 214.103 210.442, 207.703 210.421 C 200.090 210.397, 197.285 209.409, 192.664 205.128 C 187.593 200.429, 187.530 200.049, 186.975 171 C 186.390 140.321, 186.383 140.289, 179.124 133.731 C 168.713 124.325, 159.782 124.107, 149.642 133.010 C 145.016 137.071, 129.645 156.220, 120.751 169 C 117.115 174.225, 110.846 182.848, 106.820 188.163 C 88.706 212.073, 76.231 237.785, 69.499 265.084 C 64.878 283.823, 63.645 296.420, 64.320 318 C 64.876 335.778, 66.350 344.585, 71.855 363 C 75.507 375.217, 86.378 397.249, 94.776 409.452 C 98.273 414.534, 100.631 419.157, 101.173 421.997 C 103.457 433.955, 119.071 437.094, 124.733 426.733 C 126.374 423.731, 126.536 417.141, 127 334.500 L 127.500 245.500 129.805 241.792 C 132.853 236.891, 137.241 233.299, 141.795 231.979 C 144.358 231.237, 177.136 230.997, 248.152 231.203 L 350.804 231.500 355.152 234.638 C 357.770 236.527, 360.594 239.855, 362.250 243.002 L 365 248.228 365 336.414 L 365 424.600 367.741 428.827 C 376.279 441.995, 395.524 438.010, 398.439 422.471 C 398.808 420.504, 400.814 416.644, 402.895 413.894 C 412.583 401.094, 425.161 376.391, 429.318 362 C 430.192 358.975, 432.109 350.425, 433.578 343 C 436.106 330.228, 436.222 328.368, 435.731 308.500 C 435.080 282.166, 431.806 265.049, 422.918 241.500 C 414.135 218.231, 404.274 202.201, 381.374 173.961 C 378.143 169.977, 374.054 164.868, 372.286 162.608 C 370.518 160.349, 367.065 156.025, 364.613 153 C 362.160 149.975, 356.551 142.519, 352.148 136.431 C 347.745 130.344, 343.382 124.732, 342.454 123.962 C 338.004 120.268, 327.488 105.195, 324.182 97.769 C 320.595 89.714, 320.503 89.201, 320.612 77.976 C 320.718 66.990, 320.896 66.061, 324.419 58.048 C 326.451 53.426, 329.444 47.965, 331.069 45.912 C 340.284 34.278, 338.204 16.820, 326.732 9.510 C 323.939 7.731, 309.620 6.546, 304 7.629 M 164.966 285.820 C 159.538 288.226, 155.010 294.609, 155.004 299.864 C 154.999 304.295, 158.410 310.209, 162.344 312.590 C 165.309 314.384, 167.889 314.500, 205 314.500 C 241.554 314.500, 244.724 314.363, 247.500 312.666 C 254.667 308.283, 256.942 299.659, 252.792 292.604 C 248.297 284.964, 248.471 284.991, 205.016 285.070 C 183.832 285.109, 165.810 285.446, 164.966 285.820 M 164.966 335.820 C 159.538 338.226, 155.010 344.609, 155.004 349.864 C 154.999 354.295, 158.410 360.209, 162.344 362.590 C 165.370 364.421, 168.361 364.500, 235 364.500 C 301.639 364.500, 304.630 364.421, 307.656 362.590 C 311.559 360.228, 315 354.307, 315 349.952 C 315 348.150, 313.890 344.782, 312.534 342.468 C 307.938 334.625, 311.785 334.991, 234.849 335.070 C 197.257 335.109, 165.810 335.446, 164.966 335.820 M 164.500 385.954 C 159.493 388.076, 155 394.995, 155 400.582 C 155 404.372, 158.663 410.362, 162.344 412.590 C 165.370 414.421, 168.361 414.500, 235 414.500 C 301.639 414.500, 304.630 414.421, 307.656 412.590 C 311.393 410.328, 315 404.356, 315 400.430 C 315 396.556, 311.518 389.900, 308.235 387.500 C 305.569 385.550, 303.759 385.495, 236 385.303 C 197.775 385.195, 165.600 385.487, 164.500 385.954" stroke="none" fill="#fb5656" fill-rule="evenodd"/></svg>